PathFileType	3	(X/Y/Z)	F:\ViconData\AntennenMessung\Messung1\Session1\ID24.trc
DataRate	CameraRate	NumFrames	NumMarkers	Units	OrigDataRate	OrigDataStartFrame	OrigNumFrames
120.0	120.0	4	70	mm	120.0	1103	1260	
Frame#	Time	Ashort			Along			Atop			A4			Bshort			Blong			Btop			B4			Cshort			Clong			Ctop			C4			Dshort			Dlong			Dtop			D4			Eshort			Elong			Etop			E4			Fshort			Flong			Ftop			F4			Gshort			Glong			Gtop			G4			Hshort			Hlong			Htop			H4			I1			I2			I3			I4			I5			WandAshort			WandAlong			WandAtop			WandA4			WandA15			WandBshort			WandB4			WandB5			WandBtop			WandBlong			WandCshort			WandClong			WandCtop			WandC4			WandC5			Acenter			Aantenna			Bcenter			Bantenna			Ccenter			Cantenna			Dcenter			Dantenna			Ecenter			Eantenna			Fcenter			Fantenna			Gcenter			Gantenna			Hcenter			Hantenna			Icenter			Iantenna			
		X1	Y1	Z1	X2	Y2	Z2	X3	Y3	Z3	X4	Y4	Z4	X5	Y5	Z5	X6	Y6	Z6	X7	Y7	Z7	X8	Y8	Z8	X9	Y9	Z9	X10	Y10	Z10	X11	Y11	Z11	X12	Y12	Z12	X13	Y13	Z13	X14	Y14	Z14	X15	Y15	Z15	X16	Y16	Z16	X17	Y17	Z17	X18	Y18	Z18	X19	Y19	Z19	X20	Y20	Z20	X21	Y21	Z21	X22	Y22	Z22	X23	Y23	Z23	X24	Y24	Z24	X25	Y25	Z25	X26	Y26	Z26	X27	Y27	Z27	X28	Y28	Z28	X29	Y29	Z29	X30	Y30	Z30	X31	Y31	Z31	X32	Y32	Z32	X33	Y33	Z33	X34	Y34	Z34	X35	Y35	Z35	X36	Y36	Z36	X37	Y37	Z37	X38	Y38	Z38	X39	Y39	Z39	X40	Y40	Z40	X41	Y41	Z41	X42	Y42	Z42	X43	Y43	Z43	X44	Y44	Z44	X45	Y45	Z45	X46	Y46	Z46	X47	Y47	Z47	X48	Y48	Z48	X49	Y49	Z49	X50	Y50	Z50	X51	Y51	Z51	X52	Y52	Z52	X53	Y53	Z53	X54	Y54	Z54	X55	Y55	Z55	X56	Y56	Z56	X57	Y57	Z57	X58	Y58	Z58	X59	Y59	Z59	X60	Y60	Z60	X61	Y61	Z61	X62	Y62	Z62	X63	Y63	Z63	X64	Y64	Z64	X65	Y65	Z65	X66	Y66	Z66	X67	Y67	Z67	X68	Y68	Z68	X69	Y69	Z69	X70	Y70	Z70	
1103	9.1833333	-1038.212	214.50775	-1644.0392	-1109.4321	204.28053	-1599.2588	-1063.843	172.32561	-1625.3645	-1054.1613	262.36194	-1634.9009	-1352.613	235.24373	1003.4531	-1281.3704	227.2821	1052.4418	-1322.621	193.66846	1021.0186	-1284.441	287.97806	1052.7197	814.07477	187.60495	1209.4397	892.04303	178.57805	1179.1858	844.41821	145.57001	1198.4187	861.01062	292.57233	1168.4663	1115.7648	209.97296	-1401.7446	1056.2307	194.13828	-1460.2755	1094.6174	162.14124	-1423.8988	1069.6532	239.39264	-1426.2109	-1204.6759	1686.0685	-1562.832	-1129.157	1688.3561	-1605.9235	-1173.1611	1724.3191	-1581.8466	-1134.0234	1581.0046	-1603.868	-1239.5598	1699.1228	1119.5851	-1309.2998	1698.7534	1071.9846	-1270.3849	1736.2836	1096.9504	-1244.9978	1593.566	1106.4117	988.88257	1664.2009	1162.1646	957.62451	1700.249	1183.8843	922.26324	1662.1069	1215.0293	939.81812	1659.4688	1159.8762	999.00769	1668.4646	-1579.4174	1058.8862	1670.1857	-1518.6299	1024.9485	1708.0852	-1551.1027	1059.25	1672.1875	-1585.4142	-180.74739	1639.0127	-226.0842	-266.49738	1637.9357	-229.15833	-219.25281	1675.3796	-228.87201	-217.31709	1636.5358	-259.33771	-220.57056	1640.9305	-180.26077																																														-1068.8839	210.10326	-1624.7537	-1074.0415	248.75566	-1624.1289	-1321.1608	231.72881	1025.0806	-1319.6741	270.48041	1029.2164	847.99878	183.67734	1196.2762	851.64142	222.4456	1194.0964	1088.4493	202.70769	-1428.5996	1082.6248	241.01399	-1433.0386	-1171.8655	1687.0623	-1581.5537	-1170.51	1648.087	-1581.2472	-1270.9929	1698.9563	1098.1306	-1271.6277	1659.9808	1099.3629	952.99731	1705.5852	1187.0994	972.93292	1733.7874	1168.9827	1026.488	1669.2543	-1551.5198	1028.0331	1630.2871	-1551.9384	-218.841	1638.5341	-227.44984	-218.40547	1599.5656	-225.94572
1104	9.1916667	-1038.202	214.56024	-1644.0681	-1109.4335	204.28572	-1599.2657	-1064.1089	172.59142	-1625.0839	-1054.1603	262.35559	-1634.896	-1352.5988	235.26488	1003.5339	-1281.4689	227.24947	1052.3811	-1322.5496	193.84258	1020.9932	-1284.4158	287.97134	1052.7334	814.0871	187.61778	1209.3776	892.15997	178.7659	1179.1245	844.38806	145.5616	1198.3265	860.94189	292.60257	1168.4	1115.7732	209.96939	-1401.7493	1056.2335	194.10217	-1460.2212	1094.7688	162.0226	-1423.8132	1069.6691	239.41644	-1426.214	-1204.5355	1685.9333	-1563.1271	-1129.1444	1688.3313	-1605.8951	-1173.1595	1724.3192	-1581.8467	-1134.0179	1581.0153	-1603.875	-1239.5554	1699.114	1119.5857	-1309.3608	1698.8572	1072.0303	-1270.4274	1736.3203	1096.9733	-1244.9471	1593.6989	1106.4373	988.93481	1664.2333	1162.1599	957.65662	1700.2478	1183.9606	922.27698	1662.1526	1215.0364	939.79791	1659.4666	1159.8184	999.01208	1668.4749	-1579.4341	1058.8914	1670.1858	-1518.6375	1024.9496	1708.083	-1551.1001	1059.2518	1672.1846	-1585.421	-180.7495	1639.0122	-226.09003	-266.35672	1637.7848	-229.18063	-219.23851	1675.3422	-228.89467	-217.31102	1636.5343	-259.34918	-220.55983	1640.9226	-180.27675																																														-1069.1965	210.08954	-1624.5734	-1074.4396	248.73193	-1624.0474	-1321.1315	231.71895	1025.1436	-1319.6812	270.46008	1029.3885	847.92291	183.78146	1196.2661	851.50958	222.55989	1194.1757	1088.5311	202.70943	-1428.5027	1082.6593	241.01126	-1432.9172	-1171.8657	1686.9724	-1581.6599	-1170.5155	1647.9962	-1581.4651	-1271.069	1698.9979	1098.1167	-1271.7391	1660.022	1099.311	952.97034	1705.6436	1187.2267	972.90186	1733.8855	1169.1677	1026.4951	1669.26	-1551.5299	1028.0464	1630.2933	-1551.9613	-218.76155	1638.467	-227.46234	-218.25755	1599.4999	-225.94873
1105	9.2	-1038.2054	214.56836	-1644.0594	-1109.4408	204.34793	-1599.2544	-1063.8284	172.31712	-1625.3855	-1054.1566	262.33731	-1634.8835	-1352.6282	235.23212	1003.4655	-1281.5073	227.23816	1052.3834	-1322.6666	193.76297	1021.0151	-1284.4042	287.98706	1052.724	814.13245	187.55765	1209.501	892.25226	178.84479	1179.0642	844.39777	145.51097	1198.4207	860.89813	292.66733	1168.4443	1115.7278	209.68941	-1401.5939	1056.2058	194.14674	-1460.27	1094.7454	162.01843	-1423.8677	1069.6732	239.43716	-1426.1964	-1204.6156	1685.9963	-1562.9772	-1129.1604	1688.3081	-1605.8694	-1173.1509	1724.3414	-1581.8768	-1134.0326	1580.9919	-1603.8484	-1239.5586	1699.1072	1119.5859	-1309.3097	1698.7804	1072.0013	-1270.4528	1736.3722	1096.9899	-1244.9324	1593.6982	1106.2924	988.88696	1664.2185	1162.1729	957.65027	1700.3027	1183.871	922.79797	1662.0441	1215.1494	939.83337	1659.4829	1159.8081	999.01843	1668.4775	-1579.4241	1058.7618	1670.0109	-1518.6492	1024.9432	1708.0817	-1551.1023	1059.2517	1672.1853	-1585.4272	-180.54466	1639.1486	-226.20032	-266.35999	1637.8094	-229.16858	-219.25381	1675.3689	-228.88144	-217.3387	1636.5426	-259.34052	-220.58224	1640.9626	-180.26682																																														-1068.8722	210.16846	-1624.7708	-1074.0231	248.8217	-1624.1429	-1321.2001	231.69958	1025.0823	-1319.7019	270.44876	1029.2365	847.86426	183.79547	1196.3584	851.3761	222.58081	1194.2693	1088.5764	202.59952	-1428.3594	1082.7501	240.92776	-1432.6017	-1171.8507	1687	-1581.6022	-1170.4937	1648.0247	-1581.3156	-1271.0406	1698.9596	1098.1086	-1271.6533	1659.9818	1099.2743	953.25409	1705.3809	1186.9246	973.04425	1733.5409	1168.5844	1026.4084	1669.1804	-1551.561	1027.8762	1630.2108	-1552.0206	-218.7263	1638.5526	-227.52097	-218.16795	1599.5833	-226.08093
1106	9.2083333	-1038.2079	214.62862	-1644.0891	-1109.4456	204.36586	-1599.3032	-1063.8372	172.32231	-1625.3666	-1054.1737	262.33521	-1634.8711	-1352.6752	235.27626	1003.4385	-1281.4991	227.25081	1052.3575	-1322.6735	193.77576	1021.014	-1284.3937	288.04422	1052.6367	814.06976	187.65532	1209.4944	892.06293	178.58934	1179.2349	844.33167	145.56117	1198.3297	860.94202	292.58725	1168.4838	1115.7375	209.6974	-1401.5897	1056.2422	194.17729	-1460.2811	1094.6248	162.04102	-1423.8811	1069.6759	239.41678	-1426.1995	-1204.5979	1685.9941	-1562.9974	-1129.1511	1688.3259	-1605.9089	-1173.1505	1724.333	-1581.8677	-1134.0281	1581.004	-1603.8638	-1239.5635	1699.1217	1119.5906	-1309.3295	1698.8024	1072.0056	-1270.4296	1736.3289	1096.9702	-1244.9117	1593.7485	1106.1957	988.90009	1664.21	1162.1915	957.60553	1700.349	1183.92	922.84821	1661.9896	1215.126	939.81049	1659.4352	1159.8325	999.00592	1668.4744	-1579.4429	1058.8823	1670.1791	-1518.6395	1024.9377	1708.0819	-1551.1008	1059.2515	1672.1863	-1585.4193	-180.53976	1639.1677	-226.1886	-266.3501	1637.7925	-229.1804	-219.26686	1675.3768	-228.86983	-217.29553	1636.5223	-259.35681	-220.55945	1640.9805	-180.25865																																														-1068.9246	210.20348	-1624.7781	-1074.1149	248.85188	-1624.1777	-1321.1884	231.72597	1025.0792	-1319.6721	270.47479	1029.2301	847.99182	183.71217	1196.3333	851.7113	222.48137	1194.3047	1088.5308	202.60016	-1428.4287	1082.7714	240.93233	-1432.7269	-1171.856	1687.006	-1581.6199	-1170.5043	1648.0303	-1581.3612	-1271.0427	1698.9774	1098.1196	-1271.6824	1660.0011	1099.3191	953.29858	1705.3225	1186.9103	973.08832	1733.4846	1168.573	1026.4862	1669.2567	-1551.537	1028.0403	1630.2902	-1551.9749	-218.7238	1638.5557	-227.51988	-218.14906	1599.5861	-226.0912
